<svg width="134" height="84" viewBox="0 0 134 84" fill="none" xmlns="http://www.w3.org/2000/svg">
<g filter="url(#filter0_d_29_1114)">
<rect x="24" y="10" width="35.9585" height="36" fill="white"/>
</g>
<path d="M73.4815 26.38V18.3538H75.2228V21.5362H78.7755V18.3538H80.5168V26.38H78.7755V23.0104H75.2228V26.38H73.4815Z" fill="#111111"/>
<path d="M87.2004 26.5204C86.3512 26.5204 85.6188 26.3683 85.0033 26.0641C84.3878 25.7599 83.9165 25.2997 83.5893 24.6835C83.262 24.0673 83.0984 23.2951 83.0984 22.3669C83.0984 21.4231 83.262 20.647 83.5893 20.0386C83.9165 19.4224 84.3878 18.9661 85.0033 18.6697C85.6188 18.3655 86.3512 18.2134 87.2004 18.2134C88.0652 18.2134 88.8014 18.3655 89.4091 18.6697C90.0246 18.9661 90.496 19.4224 90.8232 20.0386C91.1504 20.647 91.314 21.4231 91.314 22.3669C91.314 23.2951 91.1504 24.0673 90.8232 24.6835C90.496 25.2997 90.0246 25.7599 89.4091 26.0641C88.8014 26.3683 88.0652 26.5204 87.2004 26.5204ZM87.2004 25.093C87.5822 25.093 87.9172 25.0384 88.2054 24.9292C88.4937 24.82 88.7352 24.6562 88.93 24.4378C89.1248 24.2194 89.2728 23.9542 89.3741 23.6422C89.4754 23.3224 89.526 22.9597 89.526 22.5541V22.1914C89.526 21.778 89.4754 21.4114 89.3741 21.0916C89.2728 20.7718 89.1248 20.5066 88.93 20.296C88.7352 20.0776 88.4937 19.9138 88.2054 19.8046C87.9172 19.6954 87.5822 19.6408 87.2004 19.6408C86.8264 19.6408 86.4953 19.6954 86.207 19.8046C85.9188 19.9138 85.6773 20.0776 85.4825 20.296C85.2877 20.5066 85.1397 20.7718 85.0384 21.0916C84.9449 21.4114 84.8982 21.778 84.8982 22.1914V22.5541C84.8982 22.9597 84.9449 23.3224 85.0384 23.6422C85.1397 23.9542 85.2877 24.2194 85.4825 24.4378C85.6773 24.6562 85.9188 24.82 86.207 24.9292C86.4953 25.0384 86.8264 25.093 87.2004 25.093Z" fill="#111111"/>
<path d="M95.5633 26.38V19.8163H92.9922V18.3538H99.899V19.8163H97.3162V26.38H95.5633Z" fill="#111111"/>
<path d="M102.244 26.38V18.3538H108.648V19.7812H103.997V21.5713H108.11V22.987H103.997V24.9409H108.718V26.38H102.244Z" fill="#111111"/>
<path d="M111.39 26.38V18.3538H113.131V24.8941H117.174V26.38H111.39Z" fill="#111111"/>
<path d="M73.5984 38.98V30.9538H75.3163L77.1394 36.1603C77.1862 36.3007 77.2329 36.4567 77.2797 36.6283C77.3342 36.7921 77.3809 36.9481 77.4199 37.0963C77.4666 37.2445 77.5017 37.3732 77.5251 37.4824H77.6069C77.6302 37.3654 77.6614 37.2328 77.7004 37.0846C77.7393 36.9286 77.7822 36.7687 77.8289 36.6049C77.8757 36.4411 77.9185 36.2929 77.9575 36.1603L79.7806 30.9538H81.4868V38.98H80.3766V34.2766C80.3766 34.0348 80.3805 33.7735 80.3883 33.4927C80.3961 33.2041 80.4038 32.9428 80.4116 32.7088C80.4194 32.467 80.4233 32.2954 80.4233 32.194H80.3298C80.3065 32.2954 80.2675 32.4397 80.213 32.6269C80.1584 32.8063 80.1 32.9974 80.0377 33.2002C79.9831 33.3952 79.9325 33.5707 79.8857 33.7267L78.0042 38.98H77.0459L75.1644 33.7267C75.1176 33.5941 75.067 33.442 75.0125 33.2704C74.9657 33.091 74.9151 32.9077 74.8605 32.7205C74.8138 32.5333 74.7671 32.3578 74.7203 32.194H74.6385C74.6463 32.3656 74.6502 32.5801 74.6502 32.8375C74.658 33.0871 74.6619 33.3406 74.6619 33.598C74.6697 33.8476 74.6736 34.0738 74.6736 34.2766V38.98H73.5984Z" fill="#111111"/>
<path d="M84.6618 38.98V30.9538H85.772V38.98H84.6618Z" fill="#111111"/>
<path d="M88.9461 38.98V30.9538H93.1649C93.7103 30.9538 94.1621 31.0552 94.5205 31.258C94.8867 31.453 95.1594 31.7299 95.3386 32.0887C95.5178 32.4397 95.6074 32.8453 95.6074 33.3055C95.6074 33.8593 95.4827 34.3351 95.2334 34.7329C94.9841 35.1307 94.6413 35.4154 94.205 35.587L95.8878 38.98H94.6725L93.1065 35.7859H90.0563V38.98H88.9461ZM90.0563 34.8382H93.0597C93.5038 34.8382 93.8505 34.7017 94.0998 34.4287C94.3569 34.1557 94.4855 33.7813 94.4855 33.3055C94.4855 33.0091 94.4309 32.7595 94.3219 32.5567C94.2128 32.3539 94.0531 32.1979 93.8427 32.0887C93.6324 31.9717 93.3714 31.9132 93.0597 31.9132H90.0563V34.8382Z" fill="#111111"/>
<path d="M97.6825 38.98L100.849 30.9538H102.31L105.489 38.98H104.285L103.502 36.991H99.599L98.8277 38.98H97.6825ZM99.9613 36.0433H103.128L102.158 33.5278C102.135 33.4576 102.1 33.3601 102.053 33.2353C102.006 33.1105 101.956 32.974 101.901 32.8258C101.847 32.6698 101.792 32.5138 101.738 32.3578C101.683 32.194 101.632 32.0458 101.586 31.9132H101.516C101.461 32.0692 101.399 32.2486 101.329 32.4514C101.259 32.6542 101.188 32.8531 101.118 33.0481C101.048 33.2353 100.99 33.3952 100.943 33.5278L99.9613 36.0433Z" fill="#111111"/>
<path d="M107.74 38.98V30.9538H108.815L112.707 36.2422C112.746 36.289 112.797 36.3592 112.859 36.4528C112.921 36.5464 112.984 36.64 113.046 36.7336C113.108 36.8194 113.159 36.8974 113.198 36.9676H113.245C113.245 36.8428 113.245 36.7219 113.245 36.6049C113.245 36.4801 113.245 36.3592 113.245 36.2422V30.9538H114.332V38.98H113.315L109.376 33.598C109.322 33.5122 109.24 33.3913 109.131 33.2353C109.03 33.0793 108.944 32.9545 108.874 32.8609H108.815C108.815 32.9857 108.815 33.1105 108.815 33.2353C108.815 33.3523 108.815 33.4732 108.815 33.598V38.98H107.74Z" fill="#111111"/>
<path d="M117.514 38.98V30.9538H120.506C121.347 30.9538 122.064 31.0942 122.656 31.375C123.248 31.6558 123.7 32.0926 124.012 32.6854C124.331 33.2704 124.491 34.0309 124.491 34.9669C124.491 35.8873 124.331 36.6439 124.012 37.2367C123.7 37.8295 123.248 38.2702 122.656 38.5588C122.064 38.8396 121.347 38.98 120.506 38.98H117.514ZM118.624 38.0206H120.482C120.927 38.0206 121.324 37.966 121.674 37.8568C122.025 37.7398 122.325 37.5643 122.574 37.3303C122.824 37.0963 123.011 36.796 123.135 36.4294C123.268 36.055 123.334 35.6104 123.334 35.0956V34.8616C123.334 34.3312 123.268 33.8827 123.135 33.5161C123.011 33.1417 122.824 32.8375 122.574 32.6035C122.333 32.3695 122.037 32.1979 121.686 32.0887C121.336 31.9717 120.934 31.9132 120.482 31.9132H118.624V38.0206Z" fill="#111111"/>
<path d="M126.193 38.98L129.36 30.9538H130.821L134 38.98H132.796L132.013 36.991H128.11L127.339 38.98H126.193ZM128.472 36.0433H131.639L130.669 33.5278C130.646 33.4576 130.611 33.3601 130.564 33.2353C130.517 33.1105 130.467 32.974 130.412 32.8258C130.358 32.6698 130.303 32.5138 130.249 32.3578C130.194 32.194 130.143 32.0458 130.097 31.9132H130.027C129.972 32.0692 129.91 32.2486 129.84 32.4514C129.769 32.6542 129.699 32.8531 129.629 33.0481C129.559 33.2353 129.501 33.3952 129.454 33.5278L128.472 36.0433Z" fill="#111111"/>
<path d="M36.2439 34.2235V21.8755H38.9228V26.7715H44.3885V21.8755H47.0674V34.2235H44.3885V29.0395H38.9228V34.2235H36.2439Z" fill="#111111"/>
<defs>
<filter id="filter0_d_29_1114" x="0" y="0" width="83.9585" height="84" filterUnits="userSpaceOnUse" color-interpolation-filters="sRGB">
<feFlood flood-opacity="0" result="BackgroundImageFix"/>
<feColorMatrix in="SourceAlpha" type="matrix" values="0 0 0 0 0 0 0 0 0 0 0 0 0 0 0 0 0 0 127 0" result="hardAlpha"/>
<feOffset dy="14"/>
<feGaussianBlur stdDeviation="12"/>
<feComposite in2="hardAlpha" operator="out"/>
<feColorMatrix type="matrix" values="0 0 0 0 0.545098 0 0 0 0 0.545098 0 0 0 0 0.545098 0 0 0 0.25 0"/>
<feBlend mode="normal" in2="BackgroundImageFix" result="effect1_dropShadow_29_1114"/>
<feBlend mode="normal" in="SourceGraphic" in2="effect1_dropShadow_29_1114" result="shape"/>
</filter>
</defs>
</svg>
