<svg width="16" height="16" viewBox="0 0 16 16" fill="none" xmlns="http://www.w3.org/2000/svg">
<path d="M5.22794 8.00034L8.32594 4.85784C8.52144 4.66084 8.52144 4.34084 8.32594 4.14384C8.13044 3.94684 7.81394 3.94684 7.61894 4.14384L4.16944 7.64334C3.98194 7.83284 3.98094 8.16734 4.16944 8.35784L7.61944 11.8573C7.81444 12.0543 8.13144 12.0543 8.32644 11.8573C8.52194 11.6603 8.52194 11.3403 8.32644 11.1433L5.22794 8.00034Z" fill="#121313"/>
<path d="M8.72794 8.00034L11.8259 4.85784C12.0214 4.66084 12.0214 4.34084 11.8259 4.14384C11.6304 3.94684 11.3139 3.94684 11.1189 4.14384L7.66944 7.64334C7.48194 7.83284 7.48094 8.16734 7.66944 8.35784L11.1189 11.8573C11.3144 12.0543 11.6309 12.0543 11.8259 11.8573C12.0214 11.6603 12.0214 11.3403 11.8259 11.1433L8.72794 8.00034Z" fill="#121313"/>
</svg>
