<svg width="16" height="16" viewBox="0 0 16 16" fill="none" xmlns="http://www.w3.org/2000/svg">
<path d="M10.7721 8.00034L7.67406 4.85784C7.47856 4.66084 7.47856 4.34084 7.67406 4.14384C7.86956 3.94684 8.18606 3.94684 8.38106 4.14384L11.8306 7.64334C12.0181 7.83284 12.0191 8.16734 11.8306 8.35784L8.38056 11.8573C8.18556 12.0543 7.86856 12.0543 7.67356 11.8573C7.47806 11.6603 7.47806 11.3403 7.67356 11.1433L10.7721 8.00034Z" fill="#121313"/>
<path d="M7.27206 8.00034L4.17406 4.85784C3.97856 4.66084 3.97856 4.34084 4.17406 4.14384C4.36956 3.94684 4.68606 3.94684 4.88106 4.14384L8.33056 7.64334C8.51806 7.83284 8.51906 8.16734 8.33056 8.35784L4.88106 11.8573C4.68556 12.0543 4.36906 12.0543 4.17406 11.8573C3.97856 11.6603 3.97856 11.3403 4.17406 11.1433L7.27206 8.00034Z" fill="#121313"/>
</svg>
