<svg width="16" height="16" viewBox="0 0 16 16" fill="none" xmlns="http://www.w3.org/2000/svg">
<path d="M6.05095 7.17525L10.0399 9.47828M7.19117 4.50942L5.79503 3.70336C5.62981 3.60796 5.41853 3.66457 5.32313 3.8298L2.7898 8.21766C2.6944 8.38291 2.75102 8.59417 2.91625 8.68956L4.31238 9.49562C4.47761 9.59102 4.68888 9.53442 4.78428 9.36918L7.31762 4.98132C7.41301 4.81609 7.3564 4.60481 7.19117 4.50942ZM13.1746 7.96396L11.7785 7.1579C11.6132 7.0625 11.402 7.11912 11.3066 7.28435L8.77325 11.6722C8.67785 11.8375 8.73445 12.0487 8.89969 12.1441L10.2958 12.9502C10.4611 13.0456 10.6723 12.989 10.7677 12.8237L13.3011 8.43586C13.3965 8.27063 13.3399 8.05936 13.1746 7.96396ZM1.8697 6.35679L3.25151 3.96341C3.34691 3.79818 3.55819 3.74157 3.72341 3.83696L4.62093 4.35514C4.78616 4.45054 4.84277 4.66181 4.74738 4.82704L3.36556 7.22042C3.27016 7.38567 3.05889 7.44226 2.89366 7.34687L1.99614 6.82869C1.83091 6.73329 1.77429 6.52203 1.8697 6.35679ZM12.8394 12.6901L14.2212 10.2967C14.3166 10.1315 14.26 9.92024 14.0947 9.82484L13.1972 9.30666C13.032 9.21126 12.8207 9.26788 12.7253 9.4331L11.3435 11.8265C11.2481 11.9917 11.3047 12.203 11.4699 12.2984L12.3675 12.8166C12.5327 12.912 12.7439 12.8554 12.8394 12.6901Z" stroke="#222222" stroke-linecap="round" stroke-linejoin="round"/>
</svg>
