<svg width="16" height="16" viewBox="0 0 16 16" fill="none" xmlns="http://www.w3.org/2000/svg">
<g clip-path="url(#clip0_46_875)">
<path d="M5.33333 8.66667V11.3333M10.6667 3.33333V3.66667C10.6667 4.02029 10.8071 4.35943 11.0572 4.60948C11.3072 4.85952 11.6464 5 12 5C12.3536 5 12.6928 5.14048 12.9428 5.39052C13.1929 5.64057 13.3333 5.97971 13.3333 6.33333V6.66667M2 2L14 14M11.3333 11.3333H2.66667C2.48986 11.3333 2.32029 11.2631 2.19526 11.1381C2.07024 11.013 2 10.8435 2 10.6667V9.33333C2 9.15652 2.07024 8.98695 2.19526 8.86193C2.32029 8.7369 2.48986 8.66667 2.66667 8.66667H8.66667M11.3333 8.66667H13.3333C13.5101 8.66667 13.6797 8.7369 13.8047 8.86193C13.9298 8.98695 14 9.15652 14 9.33333V10.6667C14 10.8533 13.9233 11.022 13.8 11.1427L11.3333 8.66667Z" stroke="#222222" stroke-linecap="round" stroke-linejoin="round"/>
</g>
<defs>
<clipPath id="clip0_46_875">
<rect width="16" height="16" fill="white"/>
</clipPath>
</defs>
</svg>
