<svg width="16" height="16" viewBox="0 0 16 16" fill="none" xmlns="http://www.w3.org/2000/svg">
<path d="M12.832 10.3689L11.408 9.55243L12.6456 9.00868C12.818 8.93293 12.8974 8.73118 12.8219 8.55818C12.7479 8.39081 12.54 8.30868 12.3712 8.38243L10.6705 9.12956L8.68736 7.99231L10.661 6.85306L12.381 7.60206C12.5556 7.67731 12.7577 7.59118 12.8299 7.42456C12.9047 7.25156 12.8252 7.05006 12.6529 6.97531L11.3966 6.42831L12.8279 5.60206C12.9069 5.55643 12.9634 5.48268 12.9869 5.39443C13.0104 5.30618 12.9982 5.21418 12.9525 5.13518C12.8615 4.97868 12.6435 4.91918 12.4857 5.01005L11.0641 5.83068L11.2164 4.48743C11.2269 4.3963 11.2011 4.30668 11.144 4.23493C11.0871 4.16368 11.006 4.11893 10.9161 4.10905C10.7249 4.08643 10.5574 4.22468 10.5377 4.41105L10.3446 6.25618L8.37498 7.40206V5.12668L9.86561 4.01268C9.93611 3.96093 9.98223 3.88443 9.99548 3.79718C10.0092 3.70605 9.98498 3.61055 9.92923 3.53505C9.82036 3.38743 9.61236 3.35355 9.46311 3.46343L8.37498 4.27505V2.62568C8.37498 2.42443 8.17686 2.28418 7.99898 2.28418C7.82211 2.28418 7.62498 2.42443 7.62498 2.62568V4.26505L6.55336 3.4633C6.40673 3.35443 6.19298 3.38743 6.08386 3.53493C6.02673 3.61193 6.00211 3.70893 6.01598 3.8008C6.02898 3.88668 6.07448 3.9618 6.14311 4.01193L7.62498 5.11618V7.40093L5.68486 6.28018L5.47823 4.4338C5.45761 4.26155 5.31411 4.13168 5.14411 4.13168C5.13048 4.13168 5.11636 4.13243 5.10336 4.13418C4.91886 4.1553 4.78473 4.32468 4.80448 4.5133L4.96223 5.85681L3.50711 5.02218C3.45561 4.99281 3.39711 4.97718 3.33798 4.97718C3.21573 4.97718 3.10223 5.04293 3.04173 5.14893C2.94886 5.3108 3.00498 5.5198 3.16798 5.6153L4.63236 6.45506L3.37823 7.00581C3.29448 7.04256 3.23011 7.10955 3.19723 7.19443C3.16411 7.27943 3.16623 7.37231 3.20286 7.45543C3.27486 7.62143 3.47623 7.70618 3.65273 7.63193L5.36998 6.87793L7.31686 7.99418L5.36586 9.12056L3.66323 8.37893C3.49411 8.30556 3.28686 8.38793 3.21386 8.55581C3.13836 8.72818 3.21761 8.93006 3.39061 9.00606L4.62961 9.54556L3.17686 10.3843C3.01473 10.4793 2.95898 10.6887 3.05261 10.8511C3.11336 10.9563 3.22711 11.0217 3.34886 11.0217C3.40948 11.0217 3.46873 11.0056 3.51911 10.9759L4.98161 10.1316L4.82648 11.4943C4.81648 11.5852 4.84236 11.6744 4.89961 11.7459C4.95661 11.8171 5.03786 11.8619 5.12536 11.8714C5.13873 11.8733 5.15311 11.8737 5.16736 11.8737C5.34111 11.8737 5.48686 11.7434 5.50648 11.5697L5.70198 9.70618L7.62498 8.58781V10.8578L6.30448 11.9624C6.16348 12.0806 6.14748 12.2962 6.26773 12.4416C6.33098 12.5199 6.43111 12.5667 6.53561 12.5667C6.62998 12.5667 6.69336 12.5262 6.74073 12.4886L7.62498 11.7469V13.3734C7.62498 13.5747 7.82211 13.7149 7.99898 13.7149C8.17686 13.7149 8.37498 13.5747 8.37498 13.3734V11.7359L9.27286 12.4901C9.42236 12.6104 9.62461 12.5819 9.73923 12.4431C9.79673 12.3739 9.82711 12.2881 9.82461 12.2009C9.82198 12.1063 9.78098 12.0214 9.70973 11.9621L8.37498 10.8466V8.58243L10.3385 9.71693L10.5467 11.5807C10.5674 11.7526 10.7112 11.8822 10.8816 11.8822C10.8977 11.8822 10.9077 11.8813 10.9187 11.8797C11.0087 11.8698 11.0895 11.8251 11.1461 11.7541C11.2034 11.6823 11.2291 11.5924 11.2185 11.5011L11.0599 10.1402L12.4922 10.9616C12.5436 10.9912 12.6024 11.0068 12.6621 11.0068C12.7845 11.0068 12.898 10.9409 12.9581 10.8349C13.0512 10.6724 12.995 10.4633 12.832 10.3689Z" fill="#222222"/>
</svg>
