<svg width="16" height="16" viewBox="0 0 16 16" fill="none" xmlns="http://www.w3.org/2000/svg">
<path d="M7.95 9.32047C7.24315 9.32047 6.53629 9.61153 6.07892 10.1521C5.66312 10.651 4.91469 9.98575 5.33048 9.48679C5.99576 8.73836 6.95209 8.32256 7.95 8.32256C8.94791 8.32256 9.90424 8.73836 10.5695 9.48679C10.9853 9.98575 10.2369 10.651 9.82108 10.1521C9.36371 9.61153 8.65685 9.32047 7.95 9.32047ZM7.95 12.8132C7.40946 12.8132 6.95209 12.3558 6.95209 11.8153C6.95209 11.2747 7.40946 10.8173 7.95 10.8173C8.49053 10.8173 8.94791 11.2747 8.94791 11.8153C8.94791 12.3558 8.49053 12.8132 7.95 12.8132ZM7.95 6.8257C6.61945 6.8257 5.41364 7.28307 4.45731 8.2394C4.04151 8.6552 3.2515 8.03151 3.75046 7.53255C4.87311 6.4099 6.36997 5.82779 7.95 5.82779C9.53003 5.82779 11.0269 6.4099 12.1495 7.53255C12.6485 8.03151 11.8585 8.6552 11.4427 8.2394C10.4864 7.28307 9.28055 6.8257 7.95 6.8257ZM7.95 4.33092C6.03734 4.33092 4.24941 5.03777 2.87728 6.32674C2.37833 6.78412 1.67147 6.07726 2.17043 5.61989C3.79204 4.12302 5.78786 3.33301 7.95 3.33301C10.1121 3.33301 12.108 4.12302 13.7296 5.61989C14.2285 6.07726 13.5217 6.78412 13.0227 6.32674C11.6506 5.03777 9.86266 4.33092 7.95 4.33092Z" fill="#222222"/>
</svg>
